<?xml version="1.0" standalone="no"?>
<!DOCTYPE svg PUBLIC "-//W3C//DTD SVG 20010904//EN"
 "http://www.w3.org/TR/2001/REC-SVG-20010904/DTD/svg10.dtd">
<svg version="1.0" xmlns="http://www.w3.org/2000/svg"
 width="800.000000pt" height="800.000000pt" viewBox="0 0 800.000000 800.000000"
 preserveAspectRatio="xMidYMid meet">

<g transform="translate(0.000000,800.000000) scale(0.100000,-0.100000)"
fill="#000000" stroke="none">
<path d="M4060 6965 c0 -18 -41 -20 -59 -2 -10 10 -18 5 -41 -23 -26 -32 -31
-34 -50 -22 -16 10 -25 10 -35 2 -9 -7 -20 -8 -30 -3 -24 14 -75 4 -75 -15 0
-8 -3 -12 -7 -9 -3 4 -14 0 -24 -9 -10 -9 -25 -14 -33 -11 -8 3 -26 -3 -40
-14 -19 -15 -34 -18 -59 -14 -24 5 -37 2 -46 -9 -8 -9 -24 -16 -38 -16 -22 0
-23 -1 -9 -16 17 -17 21 -29 8 -20 -5 3 -35 -8 -67 -25 -32 -16 -64 -28 -72
-25 -8 3 -16 -1 -20 -10 -3 -8 -11 -13 -18 -10 -7 2 -29 -11 -49 -30 -31 -30
-53 -40 -71 -31 -3 1 -16 -16 -28 -38 -37 -64 -68 -90 -134 -110 -50 -16 -62
-23 -57 -37 3 -11 -6 -24 -26 -39 -17 -13 -28 -29 -26 -35 3 -7 -5 -19 -17
-27 -39 -25 -83 -76 -106 -122 -12 -24 -27 -47 -32 -51 -21 -13 -88 -113 -87
-130 1 -11 -4 -38 -11 -60 -6 -23 -8 -49 -5 -59 7 -16 -8 -55 -32 -85 -23 -28
-44 -431 -23 -456 9 -11 9 -21 -1 -44 -14 -34 -7 -199 10 -231 6 -10 10 -39
10 -66 0 -71 8 -90 44 -103 17 -7 25 -14 19 -17 -19 -7 -16 -40 5 -52 16 -10
16 -10 0 -11 -9 0 -20 5 -23 11 -8 12 -57 3 -98 -18 -49 -25 -60 -70 -54 -213
4 -101 10 -139 31 -200 15 -41 40 -113 57 -159 53 -153 123 -249 218 -300 33
-17 62 -35 65 -40 3 -4 14 -61 25 -127 19 -111 37 -177 72 -261 12 -29 10 -39
-31 -135 -31 -74 -55 -114 -85 -143 -47 -47 -212 -163 -276 -195 -59 -30 -702
-394 -909 -515 -30 -18 -109 -63 -175 -100 -66 -37 -172 -97 -235 -133 -336
-190 -595 -390 -720 -557 -95 -126 -223 -405 -318 -695 -74 -223 -87 -321 -72
-527 11 -144 11 -148 -15 -232 -44 -151 -85 -304 -85 -323 0 -17 126 -18 3765
-18 3701 0 3765 0 3765 19 0 75 -112 441 -321 1046 -21 61 -65 191 -99 290
-106 312 -205 490 -344 622 -180 172 -572 438 -875 596 -75 39 -165 89 -201
112 -36 23 -81 47 -100 55 -141 53 -242 105 -355 180 -71 47 -172 109 -224
136 -103 54 -167 114 -221 209 -17 30 -35 57 -39 59 -4 3 -18 -10 -32 -27 -24
-30 -27 -44 -42 -247 -23 -296 -44 -370 -168 -587 -77 -133 -124 -197 -211
-285 -97 -98 -242 -210 -262 -202 -12 5 -32 66 -28 86 1 4 -8 10 -19 13 -14 5
-18 12 -14 25 4 11 0 22 -10 28 -16 8 -20 29 -24 109 0 19 -10 41 -23 53 -12
11 -23 27 -24 36 -1 8 -6 23 -9 32 -4 9 -8 34 -10 56 -1 21 -9 42 -16 47 -10
6 -11 9 -1 9 6 0 12 11 12 25 0 14 4 25 9 25 5 0 12 10 16 23 4 12 8 25 10 30
1 4 3 15 4 25 1 15 3 15 12 2 8 -12 10 -9 6 13 -3 21 2 35 18 51 19 19 22 30
18 69 -5 44 -4 47 23 57 16 6 32 17 37 23 7 9 10 9 14 0 7 -18 33 -16 33 2 0
8 9 15 20 15 11 0 28 8 38 18 10 10 24 16 30 14 7 -2 12 7 12 23 0 22 -3 25
-14 16 -11 -9 -15 -7 -19 8 -4 16 -11 19 -35 15 -26 -4 -31 -1 -34 18 -2 16
-10 23 -28 25 -14 0 -30 1 -37 2 -7 1 -10 7 -7 15 6 15 -42 50 -56 41 -12 -7
-42 20 -33 29 4 3 -12 6 -35 6 -26 0 -42 5 -43 13 -1 6 -5 1 -9 -13 -8 -25 -8
-25 -9 -2 -1 19 -5 22 -21 17 -11 -4 -20 -2 -20 4 0 6 7 11 16 11 14 0 14 1 0
16 -9 8 -16 20 -16 25 0 5 -7 9 -15 9 -8 0 -15 6 -15 14 0 7 -7 19 -15 26 -12
10 -12 14 0 26 17 17 28 18 20 2 -4 -7 3 -1 15 15 12 15 28 27 36 27 8 0 14 8
14 17 0 15 1 15 13 -1 9 -13 20 -16 40 -11 15 4 27 10 27 14 0 3 9 12 21 19
19 12 19 11 9 -8 -10 -19 -10 -20 7 -11 36 21 54 39 51 52 -2 9 4 13 15 11 16
-3 17 0 7 18 -6 11 -15 18 -21 15 -5 -4 -9 1 -9 10 0 8 -4 23 -9 33 -5 9 -12
25 -15 35 -5 15 -9 16 -27 6 -15 -8 -19 -8 -15 0 4 6 1 11 -7 11 -7 0 -20 11
-27 25 -9 16 -16 21 -21 14 -4 -8 -13 -5 -28 10 -11 11 -30 21 -41 21 -13 0
-20 7 -20 20 0 19 -10 24 -37 21 -7 -1 -13 3 -13 9 0 6 38 10 103 10 57 0 107
3 110 7 12 11 -37 30 -55 21 -22 -11 -94 1 -108 17 -7 9 -7 28 1 62 11 45 15
50 40 51 18 0 38 -10 58 -29 l31 -29 0 24 c0 14 4 28 10 31 6 3 10 14 10 24 0
23 16 27 98 26 40 0 61 4 58 11 -3 7 23 11 74 11 66 0 82 -3 106 -22 27 -21
27 -24 16 -62 -14 -46 -16 -83 -4 -83 4 0 25 11 48 23 22 13 57 24 77 25 33 1
39 -2 51 -31 7 -18 25 -43 39 -56 22 -20 28 -21 40 -9 18 17 34 69 42 134 7
54 -10 170 -27 192 -6 6 -7 12 -3 12 12 0 34 -33 35 -51 0 -9 7 -19 15 -23 13
-5 15 5 11 62 -2 37 -5 91 -5 120 -1 40 -4 51 -13 46 -10 -6 -10 -4 -2 7 6 8
10 23 8 34 -3 11 -5 29 -7 40 -1 11 -14 31 -29 44 -16 13 -28 32 -28 42 0 9
-15 27 -33 38 -19 11 -45 31 -58 43 -56 52 -139 95 -139 73 0 -4 7 -19 15 -35
19 -37 7 -106 -17 -102 -10 1 -17 -7 -20 -23 -4 -19 -1 -25 13 -25 10 0 21 5
24 10 15 25 35 5 59 -61 14 -38 26 -83 26 -98 0 -16 12 -45 26 -66 39 -58 46
-83 34 -121 -7 -19 -15 -34 -18 -34 -4 0 -38 5 -77 11 -38 5 -106 11 -150 13
-44 2 -100 9 -125 16 -25 7 -79 14 -120 15 -82 2 -95 4 -158 33 -40 18 -42 21
-27 35 22 22 85 39 100 27 7 -5 31 -12 55 -15 39 -5 42 -4 37 15 -3 11 -1 23
5 26 5 3 7 12 4 20 -3 8 -1 14 5 14 6 0 8 4 5 9 -3 4 19 18 50 30 30 11 80 38
111 58 60 40 61 36 -16 61 -27 9 -36 8 -48 -3 -8 -8 -19 -15 -24 -15 -5 0 -26
-16 -47 -35 l-39 -35 1 53 c1 38 -2 51 -12 49 -8 -1 -11 2 -8 7 3 5 -1 14 -9
21 -8 7 -15 18 -15 25 0 7 -7 26 -15 41 -8 16 -15 37 -15 47 0 9 -4 17 -8 17
-4 0 -8 28 -9 63 0 34 -3 80 -6 102 -3 22 -2 80 2 130 5 76 9 90 24 93 32 6
75 -18 103 -60 16 -22 30 -35 32 -29 2 7 -1 17 -7 25 -6 7 -14 30 -19 52 -5
26 -15 42 -30 49 -12 5 -22 13 -22 17 0 3 -15 11 -34 18 -25 8 -33 16 -32 33
1 18 8 22 42 25 71 5 91 -9 98 -70 10 -76 30 -146 45 -160 11 -11 13 -10 8 5
-22 60 -39 149 -38 199 0 32 -3 57 -7 57 -4 -1 -35 -1 -70 0 -46 1 -64 5 -68
16 -7 16 -6 19 30 82 16 28 20 43 12 46 -8 3 -8 8 2 18 9 9 12 10 12 1 0 -7 7
-12 15 -12 13 0 14 4 4 21 -9 17 -8 23 2 30 12 7 12 12 1 30 -8 11 -9 18 -3
14 6 -3 11 0 11 8 0 8 -6 17 -14 20 -8 3 -17 19 -21 36 -4 17 -10 31 -15 31
-5 0 -10 10 -12 21 -2 16 -11 22 -35 24 -31 3 -33 1 -33 -31 0 -33 -1 -33 -20
-17 -21 18 -27 53 -10 53 6 0 10 5 10 10 0 6 -7 10 -15 10 -8 0 -15 6 -15 14
0 16 -38 66 -50 66 -5 0 -11 -8 -13 -17 -4 -17 -5 -17 -6 0 -2 29 -21 9 -20
-21 0 -15 3 -21 6 -14 2 6 10 12 16 12 7 -1 2 -9 -10 -19 -12 -10 -19 -22 -15
-25 4 -4 -7 -5 -23 -3 -17 2 -29 10 -28 16 4 15 -10 14 -26 -1 -11 -11 -13 -9
-8 10 6 24 -2 28 -21 12 -9 -7 -9 -7 -2 2 19 23 10 35 -30 42 -23 4 -38 11
-35 16 3 6 3 16 -2 23 -15 24 -13 52 4 64 9 7 13 13 7 13 -5 0 6 9 24 20 20
12 30 25 26 32 -5 7 -3 8 6 3 7 -4 16 -2 22 6 6 10 8 7 6 -10 -2 -13 3 -26 9
-28 9 -3 11 10 8 54 -3 32 -1 51 3 43 4 -8 16 -16 27 -17 11 -1 29 -3 40 -6
11 -2 14 -2 8 0 -7 3 -13 11 -13 19 0 12 4 12 20 4 11 -6 20 -15 20 -20 0 -6
5 -10 10 -10 6 0 10 6 10 13 0 16 40 55 41 41 0 -5 5 2 10 15 6 16 6 28 -1 35
-7 7 -10 3 -10 -13 0 -12 -4 -20 -9 -17 -10 6 -7 103 3 113 10 11 7 35 -4 28
-6 -4 -17 -2 -25 5 -12 10 -11 16 5 43 10 17 17 34 14 39 -3 4 1 8 9 8 8 0 25
8 38 18 13 10 40 24 59 32 19 7 42 19 50 25 8 6 35 18 60 25 45 14 88 35 145
70 39 24 44 24 38 1 -5 -21 -67 -66 -98 -72 -10 -2 -20 -10 -23 -18 -4 -11 0
-12 14 -6 11 4 35 10 54 13 19 2 42 11 51 18 9 8 19 11 23 7 4 -4 12 0 17 10
6 9 21 17 35 17 14 0 35 7 48 16 15 9 26 11 30 5 4 -6 14 -7 22 -4 9 3 20 0
25 -8 8 -12 11 -12 22 1 23 29 71 12 86 -31 5 -16 16 -29 23 -29 7 0 23 -3 36
-6 15 -5 22 -3 20 6 -2 7 11 14 35 16 20 3 37 0 37 -5 0 -5 10 -11 23 -13 16
-2 23 -11 25 -33 4 -40 52 -78 52 -41 0 26 28 26 35 -1 4 -16 11 -23 20 -19
10 4 15 -1 15 -15 0 -11 4 -18 8 -15 5 3 21 -6 37 -18 25 -20 29 -30 26 -65
-3 -43 10 -54 28 -23 9 15 10 15 11 0 0 -9 -5 -18 -10 -20 -7 -2 -5 -16 6 -36
11 -22 14 -45 10 -70 -6 -35 -5 -36 9 -18 14 19 15 19 15 -6 0 -14 7 -28 15
-32 10 -4 13 -14 9 -35 -5 -23 -1 -35 18 -53 29 -27 96 -124 80 -114 -9 5 -12
-7 -11 -41 2 -47 2 -47 9 -13 6 30 8 32 9 8 0 -15 8 -33 16 -42 21 -20 28
-231 8 -214 -10 8 -13 -4 -14 -53 -1 -35 0 -70 1 -78 2 -20 28 -43 39 -37 5 4
21 2 35 -4 24 -9 26 -13 20 -52 -4 -24 -11 -49 -17 -56 -9 -11 -5 -13 19 -10
32 3 31 2 18 96 -7 55 3 140 37 297 24 113 36 245 32 355 -10 283 -14 317 -49
398 -8 18 -14 43 -14 55 -1 12 -12 40 -25 62 -14 22 -30 52 -36 68 -6 15 -15
27 -19 27 -4 0 -11 12 -14 26 -10 37 -45 81 -83 104 -19 11 -37 28 -41 38 -13
32 -84 132 -94 132 -5 0 -33 24 -62 54 -53 54 -96 79 -96 55 0 -7 -11 -2 -25
11 -25 23 -40 33 -110 70 -22 11 -55 32 -74 46 -26 18 -42 23 -66 18 -24 -4
-34 -2 -38 10 -4 9 -27 25 -52 36 -25 11 -60 30 -78 43 -56 42 -141 61 -150
35 -2 -8 -15 0 -32 20 -15 18 -35 32 -43 30 -9 -2 -32 12 -52 29 -37 35 -70
43 -70 18z m175 -125 c3 -5 2 -10 -4 -10 -5 0 -13 5 -16 10 -3 6 -2 10 4 10 5
0 13 -4 16 -10z m385 -755 c11 -13 10 -14 -4 -9 -9 3 -16 10 -16 15 0 13 6 11
20 -6z m-785 -215 c-23 -45 -32 -29 -10 17 10 21 20 33 22 26 2 -6 -3 -26 -12
-43z m-165 -456 c0 -2 -7 -4 -15 -4 -8 0 -15 4 -15 10 0 5 7 7 15 4 8 -4 15
-8 15 -10z m-93 -290 c-3 -4 10 -21 30 -39 20 -17 32 -35 26 -38 -9 -6 -117 7
-155 19 -26 8 -22 29 4 31 13 1 24 7 26 13 2 5 8 8 13 4 5 -3 9 0 9 5 0 6 12
11 27 11 14 0 23 -3 20 -6z m29 -125 c19 -11 34 -25 34 -29 0 -11 -55 -6 -90
8 -14 5 -30 8 -36 5 -6 -2 -24 1 -39 7 -23 9 -26 13 -15 20 28 18 111 11 146
-11z m-652 -50 c-6 -11 -24 -2 -24 11 0 5 7 7 15 4 8 -4 12 -10 9 -15z m103
-151 c-2 -24 -4 -5 -4 42 0 47 2 66 4 43 2 -24 2 -62 0 -85z m853 40 c0 -21 0
-21 -19 -2 -12 12 -14 21 -8 26 16 10 27 0 27 -24z m-285 8 c26 -11 35 -21 35
-39 0 -30 -24 -42 -44 -21 -10 10 -24 12 -42 8 -20 -5 -25 -4 -19 6 5 9 2 11
-11 7 -11 -4 -30 0 -44 8 -19 11 -21 14 -7 15 20 0 23 16 5 22 -7 3 11 5 39 7
29 1 69 -5 88 -13z m-209 -241 c-21 -16 -53 -19 -82 -8 -16 6 -16 7 2 14 10 4
37 8 59 8 37 0 39 -1 21 -14z m570 -834 c-4 -5 -1 -12 4 -14 6 -3 5 -4 -2 -3
-15 3 -23 26 -8 26 6 0 9 -4 6 -9z m-26 -296 c0 -8 -4 -15 -10 -15 -5 0 -7 7
-4 15 4 8 8 15 10 15 2 0 4 -7 4 -15z m910 -1425 c0 -5 -4 -10 -10 -10 -5 0
-10 5 -10 10 0 6 5 10 10 10 6 0 10 -4 10 -10z m-1280 -169 c0 -12 -30 -22
-43 -14 -7 4 -3 9 9 14 26 10 34 10 34 0z m2280 -1280 c0 -12 -39 -21 -45 -11
-3 5 1 11 7 13 21 9 38 8 38 -2z m34 -58 c2 -12 14 -20 37 -24 41 -7 99 -36
99 -49 0 -6 7 -10 16 -10 8 0 12 -4 9 -10 -3 -5 -2 -10 2 -10 13 0 33 -83 33
-136 0 -38 3 -45 18 -42 21 4 23 49 6 126 -6 29 -8 55 -4 57 9 6 40 -56 40
-78 0 -9 4 -17 10 -19 5 -1 13 -24 16 -49 l6 -47 -48 -4 c-27 -3 -52 -3 -56
-1 -5 2 -8 32 -8 65 0 112 -50 178 -146 193 -41 6 -44 8 -44 37 0 33 10 33 14
1z m-54 7 c0 -5 -9 -10 -21 -10 -11 0 -17 5 -14 10 3 6 13 10 21 10 8 0 14 -4
14 -10z m20 -40 c0 -5 -12 -10 -26 -10 -14 0 -23 4 -19 10 3 6 15 10 26 10 10
0 19 -4 19 -10z m128 -55 c31 -26 72 -131 72 -185 0 -28 -2 -30 -40 -30 -35 0
-40 3 -40 24 0 43 -20 81 -55 104 -31 20 -35 27 -35 67 0 45 0 45 34 45 22 0
45 -9 64 -25z m-119 -67 c0 -16 -3 -28 -7 -28 -5 0 -9 26 -9 58 -1 45 0 51 7
27 4 -16 8 -42 9 -57z m-430 10 c-1 -18 -5 -46 -9 -63 -6 -24 -8 -17 -9 33 0
35 3 62 9 62 6 0 9 -15 9 -32z m401 22 c0 -5 -10 -10 -22 -9 -22 0 -22 1 -3 9
11 5 21 9 23 9 1 1 2 -3 2 -9z m-442 -55 c-2 -13 -8 -6 -21 21 l-18 39 21 -21
c12 -12 20 -29 18 -39z m140 43 c7 -7 12 -24 12 -38 0 -31 -17 -50 -45 -50
-28 0 -45 19 -45 50 0 31 17 50 45 50 12 0 26 -5 33 -12z m-177 -25 c0 -5 2
-20 4 -35 2 -15 -1 -30 -6 -33 -5 -4 -9 5 -9 19 0 13 -3 31 -6 40 -3 9 -1 16
5 16 6 0 11 -3 12 -7z m-2191 -34 c0 -6 -4 -7 -10 -4 -5 3 -10 11 -10 16 0 6
5 7 10 4 6 -3 10 -11 10 -16z m1532 -39 c-6 -41 -12 -38 -12 6 0 19 4 33 8 30
5 -3 7 -19 4 -36z m1243 6 c3 -11 6 -34 7 -51 3 -26 -1 -30 -23 -33 -26 -3
-27 -1 -31 50 -2 29 -3 56 -1 60 7 14 43 -6 48 -26z m-75 14 c0 -5 -15 -10
-32 -10 -25 0 -29 3 -18 10 20 13 50 13 50 0z m-151 -29 c-13 -11 -26 -17 -29
-14 -6 6 30 33 43 33 5 0 -1 -9 -14 -19z m-134 -11 c-3 -5 -18 -10 -33 -10
-21 0 -24 2 -12 10 20 13 53 13 45 0z m270 -10 c-3 -5 -13 -10 -21 -10 -8 0
-12 5 -9 10 3 6 13 10 21 10 8 0 12 -4 9 -10z m-2655 -26 c0 -8 -5 -12 -10 -9
-6 4 -8 11 -5 16 9 14 15 11 15 -7z m2416 -11 c-10 -10 -19 5 -10 18 6 11 8
11 12 0 2 -7 1 -15 -2 -18z m-26 7 c0 -5 -11 -10 -25 -10 -14 0 -25 5 -25 10
0 6 11 10 25 10 14 0 25 -4 25 -10z m300 -16 c0 -4 -24 -2 -60 5 -3 1 2 5 9
10 14 9 51 -2 51 -15z m-1153 -76 c-2 -18 -4 -6 -4 27 0 33 2 48 4 33 2 -15 2
-42 0 -60z m1033 71 c0 -10 -40 -18 -56 -12 -26 10 -14 22 21 20 19 -1 35 -5
35 -8z m-164 -26 c-10 -10 -19 5 -10 18 6 11 8 11 12 0 2 -7 1 -15 -2 -18z
m-2397 -96 c1 -5 -3 -5 -9 -2 -5 3 -10 16 -9 28 0 21 1 21 9 2 5 -11 9 -24 9
-28z"/>
<path d="M5920 426 c0 -29 5 -38 24 -46 13 -5 30 -17 37 -27 19 -24 40 -28 32
-5 -11 29 -33 58 -33 43 0 -8 -3 -12 -6 -8 -3 3 -2 13 3 22 8 14 11 14 25 -2
9 -10 20 -39 26 -65 10 -49 2 -62 -18 -30 -8 14 -10 12 -7 -13 3 -21 9 -30 22
-30 24 0 26 22 10 91 -15 64 -36 89 -82 99 -32 6 -33 6 -33 -29z"/>
<path d="M5502 398 c-16 -16 -15 -43 3 -58 21 -18 47 5 43 39 -3 29 -27 38
-46 19z"/>
<path d="M5920 302 c0 -16 7 -35 15 -42 13 -11 15 -8 15 18 0 16 -7 35 -15 42
-13 11 -15 8 -15 -18z"/>
<path d="M3920 5940 c-9 -6 -10 -10 -3 -10 6 0 15 5 18 10 8 12 4 12 -15 0z"/>
<path d="M3962 5898 c-7 -7 -12 -16 -12 -20 0 -15 15 -8 28 12 13 22 3 27 -16
8z"/>
<path d="M4655 5360 c-4 -6 3 -10 14 -10 25 0 27 6 6 13 -8 4 -17 2 -20 -3z"/>
<path d="M4390 5350 c-8 -5 -23 -7 -32 -4 -10 3 -26 -4 -37 -15 -12 -12 -27
-21 -33 -21 -9 0 -8 4 2 10 12 8 11 10 -6 10 -32 0 -74 -38 -74 -66 0 -13 3
-24 8 -25 35 -4 68 -11 74 -17 19 -18 8 -112 -13 -112 -5 0 -9 -5 -9 -11 0
-15 -53 -79 -66 -79 -16 0 -64 -39 -64 -52 0 -6 9 -3 19 6 26 23 110 45 201
50 l75 5 -70 -10 c-155 -21 -172 -36 -160 -139 8 -71 25 -110 47 -110 10 0 19
-6 19 -12 1 -7 2 -17 4 -23 1 -5 3 -21 4 -35 1 -18 4 -21 10 -11 7 11 10 8 16
-9 14 -43 37 -59 90 -60 125 -3 150 0 162 19 8 13 8 18 -1 18 -21 0 -70 37
-55 42 8 2 17 8 20 13 3 5 29 11 57 15 l52 6 0 -30 c0 -16 8 -37 18 -46 16
-15 26 -12 132 39 63 31 123 63 133 71 16 15 17 15 17 -3 1 -16 3 -15 15 6 11
19 14 21 15 8 0 -14 5 -16 23 -9 12 5 42 14 67 21 25 7 62 19 82 27 67 28 70
21 63 -129 -9 -166 -3 -168 21 -8 11 77 24 130 35 148 10 16 10 26 2 44 -7 13
-15 33 -18 45 -4 16 -18 26 -46 33 -21 6 -45 10 -52 9 -6 -1 -20 1 -30 6 -10
4 -26 1 -41 -9 -21 -13 -26 -13 -36 -1 -7 8 -25 15 -40 15 -15 0 -35 9 -46 21
-10 12 -30 27 -44 34 -36 18 -186 35 -318 35 -85 0 -117 4 -128 14 -17 18 -18
30 -1 20 8 -5 7 -2 -2 10 -8 9 -21 14 -30 11 -13 -4 -12 -2 2 9 9 7 17 27 17
44 0 26 6 32 40 46 22 9 52 13 68 10 21 -4 31 -2 35 10 6 14 11 15 28 5 18 -9
24 -8 31 5 5 9 18 16 29 16 11 0 17 4 14 10 -3 6 1 7 9 4 9 -3 16 -1 16 5 0 6
-9 11 -19 11 -10 0 -22 7 -25 16 -5 12 -2 15 10 10 14 -5 15 -4 4 9 -7 8 -23
15 -36 15 -13 0 -24 4 -24 10 0 5 -7 7 -15 4 -8 -4 -12 -10 -9 -15 7 -11 -10
-11 -65 2 -34 8 -46 7 -54 -3 -6 -9 -7 -8 -3 5 4 14 -1 17 -32 17 -20 0 -44
-5 -52 -10z m482 -330 c61 -18 78 -50 77 -139 -1 -42 -4 -66 -6 -53 -5 26 -35
29 -73 7 -14 -8 -40 -14 -58 -15 -18 0 -58 -13 -89 -30 -56 -30 -153 -44 -138
-19 4 6 -1 17 -11 24 -11 9 -14 14 -6 15 6 0 12 7 12 16 0 17 44 64 60 64 4 0
10 -4 12 -9 2 -6 43 -7 103 -3 85 5 94 7 58 13 -22 4 -70 19 -105 33 -34 14
-87 30 -115 36 -29 7 -53 16 -53 21 0 5 -6 9 -13 9 -8 0 -19 12 -26 26 l-12
27 173 -6 c95 -3 190 -10 210 -17z m233 -110 c-21 -23 -45 -26 -45 -6 0 13 13
18 54 25 5 0 1 -8 -9 -19z"/>
<path d="M5201 5248 c0 -9 -4 -25 -7 -35 -5 -17 -5 -17 6 0 6 10 9 25 7 35 -4
15 -5 15 -6 0z"/>
<path d="M4164 4805 c11 -62 16 -75 32 -75 23 0 16 43 -12 81 l-26 34 6 -40z"/>
<path d="M5365 4738 l-27 -23 16 -84 c9 -46 16 -106 16 -134 0 -68 11 -52 31
45 19 92 20 209 3 215 -7 2 -24 -6 -39 -19z"/>
<path d="M4360 4600 c19 -13 30 -13 30 0 0 6 -10 10 -22 10 -19 0 -20 -2 -8
-10z"/>
<path d="M4195 4570 c10 -11 20 -20 23 -20 3 0 -3 9 -13 20 -10 11 -20 20 -23
20 -3 0 3 -9 13 -20z"/>
<path d="M5220 4531 c-17 -35 -19 -50 -12 -89 4 -26 4 -65 0 -87 -8 -34 -6
-42 12 -57 11 -9 21 -19 20 -22 0 -8 12 -6 28 3 11 6 12 24 8 72 -4 35 -8 94
-9 131 -3 88 -18 104 -47 49z"/>
<path d="M4546 4495 c-16 -12 -17 -15 -4 -15 24 0 48 11 48 21 0 13 -23 10
-44 -6z"/>
<path d="M4333 4466 c4 -13 38 -15 35 -1 -2 5 -11 10 -21 10 -10 1 -16 -3 -14
-9z"/>
</g>
</svg>
